<svg id="wave" style="transform:rotate(180deg); transition: 0.3s" viewBox="0 0 1440 490" version="1.1" xmlns="http://www.w3.org/2000/svg" preserveAspectRatio="none"><defs><linearGradient id="sw-gradient-0" x1="0" x2="0" y1="1" y2="0"><stop stop-color="rgba(230, 37, 28, 1)" offset="0%"></stop><stop stop-color="rgba(230, 37, 28, 1)" offset="100%"></stop></linearGradient></defs><path style="transform:translate(0, 0px); opacity:1" fill="url(#sw-gradient-0)" d="M0,98L80,89.8C160,82,320,65,480,73.5C640,82,800,114,960,114.3C1120,114,1280,82,1440,57.2C1600,33,1760,16,1920,57.2C2080,98,2240,196,2400,253.2C2560,310,2720,327,2880,285.8C3040,245,3200,147,3360,138.8C3520,131,3680,212,3840,269.5C4000,327,4160,359,4320,334.8C4480,310,4640,229,4800,179.7C4960,131,5120,114,5280,130.7C5440,147,5600,196,5760,179.7C5920,163,6080,82,6240,89.8C6400,98,6560,196,6720,269.5C6880,343,7040,392,7200,367.5C7360,343,7520,245,7680,196C7840,147,8000,147,8160,196C8320,245,8480,343,8640,326.7C8800,310,8960,180,9120,114.3C9280,49,9440,49,9600,65.3C9760,82,9920,114,10080,130.7C10240,147,10400,147,10560,179.7C10720,212,10880,278,11040,318.5C11200,359,11360,376,11440,383.8L11520,392L11520,490L11440,490C11360,490,11200,490,11040,490C10880,490,10720,490,10560,490C10400,490,10240,490,10080,490C9920,490,9760,490,9600,490C9440,490,9280,490,9120,490C8960,490,8800,490,8640,490C8480,490,8320,490,8160,490C8000,490,7840,490,7680,490C7520,490,7360,490,7200,490C7040,490,6880,490,6720,490C6560,490,6400,490,6240,490C6080,490,5920,490,5760,490C5600,490,5440,490,5280,490C5120,490,4960,490,4800,490C4640,490,4480,490,4320,490C4160,490,4000,490,3840,490C3680,490,3520,490,3360,490C3200,490,3040,490,2880,490C2720,490,2560,490,2400,490C2240,490,2080,490,1920,490C1760,490,1600,490,1440,490C1280,490,1120,490,960,490C800,490,640,490,480,490C320,490,160,490,80,490L0,490Z"></path></svg>